<svg width="200" height="179" viewBox="0 0 200 179" fill="none" xmlns="http://www.w3.org/2000/svg">
<path d="M142.819 125.902L117.154 127.293L113.604 125.902L114.97 120.755L120.43 121.033C119.557 119.92 120.066 118.714 120.43 118.251C122.068 123.148 136.039 125.392 142.819 125.902Z" fill="#EDBB41"/>
<path d="M106.433 65.9238C104.805 66.5749 103.313 67.642 102.771 68.0942L103.042 70.8071C103.63 70.6714 105.05 70.156 106.026 69.1793C107.003 68.2027 107.066 69.2245 106.976 69.8575L106.84 71.8922C106.795 72.6609 106.976 74.2253 108.061 74.3339C109.146 74.4424 109.598 72.7513 109.689 71.8922C110.448 68.6367 112.718 65.11 113.758 63.7535L116.878 60.2267C119.048 57.5138 122.123 56.5643 123.389 56.4286C123.615 56.3834 124.501 56.3201 126.237 56.4286C127.974 56.5371 126.961 57.1069 126.237 57.3781C125.044 57.7037 123.66 58.7798 123.118 59.2772C120.405 61.9901 120.269 63.5726 120.54 64.0248C120.586 64.4769 121.49 64.5674 124.745 61.3119C128.815 57.2425 134.512 57.7851 136.682 57.6494C138.418 57.5409 137.948 56.9712 137.496 56.6999C136.23 55.7052 132.233 53.77 126.373 53.987C119.048 54.2583 114.436 58.192 112.13 61.1762C109.824 64.1604 108.468 65.11 106.433 65.9238Z" fill="#EDBB41"/>
<path d="M107.654 79.7597L101.821 84.9142L103.449 88.7123L107.654 79.7597Z" fill="#EDBB41"/>
<path d="M135.326 54.1226C135.377 54.153 135.431 54.1846 135.486 54.2174C135.692 54.2597 136.125 54.2607 136.953 54.1226C138.256 53.9056 140.571 53.4896 141.565 53.3088C142.379 53.2636 143.817 53.5258 143.057 54.9365C142.298 56.3472 143.012 57.4234 143.464 57.7851C144.64 58.6442 146.774 60.4709 145.906 60.9049C144.821 61.4475 141.565 58.7346 140.752 57.7851C140.122 57.051 137.078 55.1598 135.486 54.2174C135.369 54.1932 135.326 54.1555 135.326 54.1226Z" fill="#EDBB41"/>
<path d="M131.392 62.2614C132.911 62.6955 132.025 63.2561 131.392 63.4822C130.985 63.6631 130.008 64.2689 129.357 65.2456C128.706 66.2222 128.001 67.642 127.73 68.2298C127.594 68.4107 127.133 68.7453 126.373 68.6367C125.613 68.5282 125.695 67.5968 125.831 67.1446C126.057 66.376 126.4 64.6216 125.966 63.7535C125.532 62.8854 125.695 62.3066 125.831 62.1257C127.024 60.715 128.679 61.1762 129.357 61.5832C129.403 61.6284 129.873 61.8273 131.392 62.2614Z" fill="#EDBB41"/>
<path d="M106.569 104.583C106.614 100.378 108.739 91.0454 116.878 87.3558C117.737 87.0846 119.13 85.7552 117.827 82.6082C116.2 78.6745 115.657 72.4348 117.556 70.6714C119.075 69.2607 119.274 70.8975 119.184 71.8922C119.365 73.7461 120.893 78.2947 125.559 81.6587C126.192 82.0204 127.268 82.2827 126.509 80.4379C125.469 78.8102 123.606 75.2834 124.474 74.1982C124.926 73.9269 126.075 73.9541 127.051 76.2329C128.272 79.0815 131.935 83.8291 140.073 80.4379C137.813 78.4484 133.508 72.8418 134.376 66.3308C135.461 66.6473 137.686 67.9043 137.903 70.4001C138.12 72.896 139.44 72.254 140.073 71.6209C140.073 70.3097 140.914 67.7686 144.278 68.0942C145.092 68.0942 146.34 67.633 144.821 65.7882C142.922 63.4822 143.058 63.7535 142.379 63.7535C141.701 63.7535 140.887 62.1257 141.972 61.9901C143.058 61.8545 145.906 63.0753 146.449 63.7535C146.991 64.4317 147.263 66.8733 148.755 66.3308C150.247 65.7882 150.382 66.4664 150.654 65.3812C150.925 64.2961 151.875 64.8387 152.417 66.0595C152.96 67.2803 151.739 68.7724 151.332 68.6367C151.006 68.5282 150.744 67.7776 150.654 67.4159C150.428 66.8733 149.677 66.2494 148.483 68.0942C148.438 68.8176 148.104 70.156 147.127 69.7219C146.675 70.1741 146.15 71.1869 147.669 71.6209C149.569 72.1635 148.755 73.9269 147.398 74.1982C146.313 74.4152 145.861 74.8312 145.77 75.0121C145.454 75.0121 144.875 75.3648 145.092 76.7755C145.223 77.6236 145.262 77.9912 145.262 78.1201L149.162 76.7755C150.111 76.4138 152.227 75.7446 153.095 75.9616C154.18 76.2329 154.994 74.3339 154.316 72.9774C153.774 71.8922 156.803 72.5252 158.386 72.9774C159.109 73.2487 159.986 74.3881 157.707 76.7755C157.617 77.092 156.975 77.8064 155.13 78.1319C153.285 78.4575 154.633 79.1719 155.537 79.4884C156.351 80.0762 157.246 81.3332 154.316 81.6587C153.638 81.5683 152.526 81.9029 153.502 83.9647C152.96 84.7786 151.603 85.7552 150.518 83.1508C149.433 80.5464 147.534 82.0657 146.72 83.1508C143.691 85.3212 137.008 91.3981 134.512 98.3431C134.195 99.79 132.26 102.874 127.051 103.633C125.604 103.859 122.195 106.183 120.133 113.671C119.953 114.621 119.374 115.896 118.506 113.4C117.421 110.28 117.556 104.854 119.184 99.9709C119.184 99.4735 118.94 98.8315 117.963 100.242C116.742 102.006 112.809 111.501 112.402 113.671C112.076 115.407 108.377 108.336 106.569 104.583Z" fill="#EDBB41"/>
<path d="M125.966 114.214C125.749 118.554 133.381 119.097 137.225 118.826C149.568 116.927 153.367 104.854 153.367 103.905C153.367 102.955 152.824 102.819 152.146 102.684C151.603 102.575 151.196 104.447 151.061 105.397C149.84 108.517 146.991 111.229 144.143 111.772C141.864 112.206 142.56 111.229 143.193 110.687C149.161 106.672 150.292 98.6144 150.111 95.0876L153.367 96.1728C151.829 93.9573 148.727 89.1464 148.619 87.6271C148.51 86.1079 148.031 85.7281 147.805 85.7281C143.898 87.4644 141.656 89.5262 141.023 90.34C138.626 93.3242 134.24 99.7267 135.868 101.463C137.496 103.199 137.179 105.08 136.818 105.804C136.23 107.431 134.132 110.795 130.442 111.229C126.753 111.664 125.921 113.4 125.966 114.214Z" fill="#EDBB41"/>
<path d="M198.975 141.328C198.975 141.632 198.922 141.944 198.815 142.263C198.435 143.326 197.562 144.078 196.195 144.518C196.56 144.564 196.909 144.632 197.243 144.723C199.081 145.209 200 146.295 200 147.981C200 148.741 199.772 149.44 199.316 150.078C198.39 151.308 196.886 151.923 194.805 151.923H187.013V151.308H188.836V138.868H187.013V138.253H194.395C195.23 138.253 195.975 138.344 196.628 138.526C198.192 138.982 198.975 139.916 198.975 141.328ZM193.119 138.868H192.025V144.199H193.301C193.575 144.199 193.833 144.169 194.076 144.108C195.139 143.804 195.671 142.939 195.671 141.511C195.656 139.779 194.805 138.898 193.119 138.868ZM193.894 144.837H192.025V151.308H193.552C193.749 151.308 193.947 151.293 194.144 151.262C195.724 151.035 196.514 149.888 196.514 147.822C196.514 147.366 196.446 146.941 196.309 146.546C195.914 145.407 195.109 144.837 193.894 144.837Z" fill="#351C68"/>
<path d="M172.044 138.868V138.253H178.879V138.868H177.056V146.728C177.056 147.594 177.125 148.338 177.261 148.961C177.626 150.632 178.575 151.467 180.109 151.467C182.54 151.452 183.763 149.873 183.778 146.728V138.868H181.955V138.253H186.443V138.868H184.621V146.592C184.621 147.67 184.499 148.589 184.256 149.349C183.618 151.217 182.076 152.151 179.631 152.151C175.818 152.136 173.897 150.389 173.867 146.911V138.868H172.044Z" fill="#351C68"/>
<path d="M171.725 151.923H160.561V151.308H162.383V138.868H160.561V138.253H167.51V138.868H165.573V151.308H167.92C168.376 151.308 168.778 151.232 169.127 151.08C169.72 150.792 170.175 150.138 170.494 149.121L171.155 146.979H171.816L171.725 151.923Z" fill="#351C68"/>
<path d="M158.852 151.035C157.409 151.779 155.905 152.151 154.34 152.151C152.138 152.151 150.361 151.445 149.009 150.032C147.748 148.695 147.118 147.047 147.118 145.088C147.118 143.432 147.596 141.966 148.553 140.691C149.905 138.913 151.857 138.025 154.409 138.025C156.004 138.025 157.462 138.382 158.783 139.096C158.768 138.853 158.776 138.655 158.806 138.503C158.882 138.26 159.117 138.139 159.512 138.139L159.581 142.627H158.783C158.54 141.746 158.259 141.025 157.94 140.463C157.257 139.293 156.201 138.708 154.773 138.708C152.07 138.723 150.71 140.812 150.695 144.974C150.695 146.25 150.786 147.321 150.968 148.187C151.454 150.374 152.662 151.467 154.591 151.467C155.077 151.467 155.518 151.414 155.913 151.308C157.34 150.913 158.335 149.66 158.897 147.549H159.649V152.037C159.482 152.037 159.345 152.022 159.239 151.992C158.966 151.931 158.836 151.612 158.852 151.035Z" fill="#351C68"/>
<path d="M141.057 148.118C141.057 149.121 140.7 149.971 139.986 150.67C138.953 151.657 137.472 152.151 135.543 152.151C133.888 152.151 132.475 151.764 131.306 150.989C131.306 151.247 131.29 151.452 131.26 151.604C131.184 151.847 130.941 151.969 130.531 151.969V147.138H131.419C131.48 147.944 131.647 148.657 131.921 149.28C132.574 150.754 133.705 151.49 135.316 151.49C135.741 151.49 136.128 151.43 136.478 151.308C137.45 150.943 137.936 150.214 137.936 149.121C137.936 148.802 137.867 148.49 137.731 148.187C137.412 147.549 136.599 146.888 135.293 146.204C133.835 145.46 133.014 145.027 132.832 144.906C131.389 144.009 130.668 142.931 130.668 141.67C130.668 140.82 130.964 140.083 131.556 139.46C132.483 138.503 133.865 138.025 135.703 138.025C137.1 138.025 138.429 138.321 139.69 138.913C139.69 138.777 139.698 138.655 139.713 138.549C139.789 138.26 140.04 138.116 140.465 138.116V142.24H139.576C139.561 141.42 139.364 140.713 138.984 140.121C138.361 139.179 137.427 138.708 136.181 138.708C135.862 138.708 135.559 138.754 135.27 138.845C134.404 139.134 133.971 139.726 133.971 140.622C133.971 140.972 134.047 141.306 134.199 141.625C134.518 142.278 135.316 142.939 136.591 143.607C137.989 144.351 138.786 144.777 138.984 144.883C140.366 145.779 141.057 146.857 141.057 148.118Z" fill="#351C68"/>
<path d="M128.344 148.118C128.344 149.121 127.987 149.971 127.273 150.67C126.24 151.657 124.759 152.151 122.83 152.151C121.174 152.151 119.762 151.764 118.592 150.989C118.592 151.247 118.577 151.452 118.546 151.604C118.471 151.847 118.227 151.969 117.817 151.969V147.138H118.706C118.767 147.944 118.934 148.657 119.207 149.28C119.86 150.754 120.992 151.49 122.602 151.49C123.027 151.49 123.415 151.43 123.764 151.308C124.736 150.943 125.222 150.214 125.222 149.121C125.222 148.802 125.154 148.49 125.017 148.187C124.698 147.549 123.886 146.888 122.579 146.204C121.121 145.46 120.301 145.027 120.119 144.906C118.676 144.009 117.954 142.931 117.954 141.67C117.954 140.82 118.25 140.083 118.843 139.46C119.769 138.503 121.151 138.025 122.989 138.025C124.387 138.025 125.716 138.321 126.977 138.913C126.977 138.777 126.984 138.655 126.999 138.549C127.075 138.26 127.326 138.116 127.751 138.116V142.24H126.863C126.848 141.42 126.65 140.713 126.27 140.121C125.648 139.179 124.713 138.708 123.468 138.708C123.149 138.708 122.845 138.754 122.557 138.845C121.691 139.134 121.258 139.726 121.258 140.622C121.258 140.972 121.334 141.306 121.486 141.625C121.805 142.278 122.602 142.939 123.878 143.607C125.275 144.351 126.073 144.777 126.27 144.883C127.653 145.779 128.344 146.857 128.344 148.118Z" fill="#351C68"/>
<path d="M115.539 142.627H114.878L114.377 141.055C114.331 140.918 114.278 140.782 114.217 140.645C113.747 139.46 112.888 138.868 111.643 138.868H109.068V144.541H113.443V145.225H109.068V151.308H111.643C111.931 151.308 112.205 151.278 112.463 151.217C113.329 150.989 113.959 150.29 114.354 149.121L114.878 147.549H115.539L115.448 151.923H104.056V151.308H105.878V138.868H104.056V138.253H115.448L115.539 142.627Z" fill="#351C68"/>
<path d="M94.1673 151.923H87.332V151.308H89.1548V138.868H87.332V138.253H94.1673V138.868H92.3446V144.541H98.1318V138.868H96.309V138.253H103.144V138.868H101.322V151.308H102.529C102.848 151.338 103.053 151.543 103.144 151.923H96.309V151.308H98.1318V145.225H92.3446V151.308H93.5521C93.8711 151.338 94.0762 151.543 94.1673 151.923Z" fill="#351C68"/>
<path d="M85.6232 151.035C84.1802 151.779 82.6764 152.151 81.1119 152.151C78.9094 152.151 77.1322 151.445 75.7804 150.032C74.5196 148.695 73.8893 147.047 73.8893 145.088C73.8893 143.432 74.3678 141.966 75.3247 140.691C76.6766 138.913 78.6284 138.025 81.1802 138.025C82.7751 138.025 84.2333 138.382 85.5548 139.096C85.5396 138.853 85.5472 138.655 85.5776 138.503C85.6535 138.26 85.889 138.139 86.2839 138.139L86.3523 142.627H85.5548C85.3118 141.746 85.0308 141.025 84.7118 140.463C84.0283 139.293 82.9726 138.708 81.5448 138.708C78.8411 138.723 77.4816 140.812 77.4664 144.974C77.4664 146.25 77.5575 147.321 77.7398 148.187C78.2259 150.374 79.4334 151.467 81.3625 151.467C81.8486 151.467 82.2891 151.414 82.684 151.308C84.1118 150.913 85.1067 149.66 85.6687 147.549H86.4206V152.037C86.2535 152.037 86.1168 152.022 86.0105 151.992C85.7371 151.931 85.608 151.612 85.6232 151.035Z" fill="#351C68"/>
<path d="M65.8464 151.923H58.7833V151.308H60.72V146.136L56.596 138.868H55.5251V138.253H61.9047V138.868H60.1731L63.4996 145.179L66.5755 138.868H64.7528V138.253H68.7628C68.7324 138.572 68.5274 138.777 68.1476 138.868C67.6767 138.883 67.297 139.096 67.0084 139.506L63.9097 145.976V151.308H65.2312C65.5502 151.338 65.7553 151.543 65.8464 151.923Z" fill="#351C68"/>
<path d="M50.8544 138.868V138.253H55.4569V138.868H53.6341V151.809L52.3354 152.037L43.5635 141.807V151.308H44.885C45.204 151.338 45.409 151.543 45.5002 151.923H40.7838V151.308H42.6066V138.868H40.7838V138.253H44.6343L52.6772 147.685V138.868H50.8544Z" fill="#351C68"/>
<path d="M35.7257 138.868V138.253H40.3281V138.868H38.5053V151.809L37.2066 152.037L28.4347 141.807V151.308H29.7562C30.0752 151.338 30.2802 151.543 30.3714 151.923H25.655V151.308H27.4778V138.868H25.655V138.253H29.5056L37.5484 147.685V138.868H35.7257Z" fill="#351C68"/>
<path d="M24.2881 142.627H23.6273L23.1261 141.055C23.0805 140.918 23.0273 140.782 22.9666 140.645C22.4957 139.46 21.6375 138.868 20.392 138.868H17.8173V144.541H22.1919V145.225H17.8173V151.308H20.392C20.6806 151.308 20.954 151.278 21.2122 151.217C22.078 150.989 22.7084 150.29 23.1033 149.121L23.6273 147.549H24.2881L24.1969 151.923H12.8048V151.308H14.6275V138.868H12.8048V138.253H24.1969L24.2881 142.627Z" fill="#351C68"/>
<path d="M6.31123 138.868H5.01253V145.225H6.2201C7.84537 145.209 8.6732 144.154 8.70358 142.058C8.68839 139.961 7.89094 138.898 6.31123 138.868ZM7.29096 151.923H0V151.308H1.82274V138.868H0V138.253H7.60994C8.61244 138.253 9.47824 138.427 10.2073 138.777C11.4833 139.399 12.1212 140.425 12.1212 141.853C12.1212 142.43 12.0225 142.954 11.825 143.425C11.1567 145.08 9.50862 145.908 6.88084 145.908H5.01253V151.308H6.67578C6.99476 151.338 7.19982 151.543 7.29096 151.923Z" fill="#351C68"/>
<path d="M181.867 178.137C181.987 178.137 182.113 178.113 182.245 178.065C182.774 177.872 183.326 177.062 183.903 175.633L180.39 167.958H179.633V167.508H183.867V167.958H182.768L184.948 172.984L186.911 167.958H185.56V167.508H188.352C188.352 167.568 188.346 167.628 188.334 167.688C188.31 167.868 188.166 167.958 187.902 167.958C187.71 167.982 187.512 168.156 187.308 168.48L184.605 175.488C184.377 176.089 184.137 176.599 183.885 177.02C183.224 178.185 182.389 178.767 181.381 178.767C180.936 178.767 180.546 178.677 180.21 178.497C179.729 178.245 179.489 177.921 179.489 177.524C179.489 177.44 179.501 177.35 179.525 177.254C179.645 176.882 179.921 176.695 180.354 176.695C180.558 176.695 180.738 176.75 180.894 176.858C181.026 176.966 181.176 177.23 181.344 177.65C181.477 177.975 181.651 178.137 181.867 178.137Z" fill="#7F8082"/>
<path d="M173.292 168.066V167.598H174.535V165.886L176.823 165.508V167.598H179.201V168.066H176.823V173.525C176.823 173.681 176.835 173.831 176.859 173.975C176.955 174.6 177.225 174.912 177.669 174.912C177.741 174.912 177.814 174.906 177.886 174.894C178.354 174.798 178.708 174.263 178.948 173.291L179.435 173.363C179.339 173.855 179.207 174.251 179.039 174.552C178.69 175.152 178.054 175.452 177.129 175.452C176.985 175.452 176.841 175.446 176.697 175.434C175.255 175.266 174.535 174.311 174.535 172.57V168.066H173.292Z" fill="#7F8082"/>
<path d="M172.229 174.786C172.301 174.786 172.367 174.792 172.427 174.804C172.583 174.828 172.661 174.978 172.661 175.254H168.229V174.786C168.385 174.786 168.524 174.774 168.644 174.75C169.064 174.678 169.274 174.377 169.274 173.849V167.976H168.229V167.508H171.562V174.786H172.229ZM171.724 165.148C171.724 165.376 171.664 165.592 171.544 165.796C171.292 166.241 170.902 166.463 170.373 166.463C170.157 166.463 169.947 166.409 169.743 166.301C169.274 166.06 169.04 165.676 169.04 165.148C169.04 164.919 169.094 164.703 169.202 164.499C169.466 164.031 169.857 163.796 170.373 163.796C170.601 163.796 170.817 163.856 171.022 163.977C171.49 164.229 171.724 164.619 171.724 165.148Z" fill="#7F8082"/>
<path d="M161.798 174.786C161.87 174.786 161.936 174.792 161.996 174.804C162.152 174.828 162.23 174.978 162.23 175.254H158.015V174.786C158.111 174.786 158.201 174.78 158.285 174.768C158.801 174.708 159.059 174.402 159.059 173.849V167.976H158.015V167.508H161.221L161.311 168.913C161.419 168.697 161.564 168.486 161.744 168.282C162.356 167.586 163.101 167.237 163.978 167.237C164.29 167.237 164.59 167.285 164.878 167.381C165.935 167.754 166.464 168.685 166.464 170.174V174.786H167.058C167.13 174.786 167.202 174.792 167.274 174.804C167.431 174.828 167.509 174.978 167.509 175.254H163.347V174.786C163.515 174.786 163.659 174.768 163.779 174.732C164.044 174.648 164.176 174.353 164.176 173.849V169.868C164.176 169.699 164.164 169.537 164.14 169.381C164.02 168.577 163.617 168.174 162.933 168.174C162.753 168.174 162.578 168.216 162.41 168.3C161.798 168.601 161.449 169.225 161.365 170.174L161.347 174.786H161.798Z" fill="#7F8082"/>
<path d="M156.862 174.786C156.946 174.786 157.018 174.792 157.078 174.804C157.222 174.84 157.294 174.99 157.294 175.254H154.087L153.997 173.777C153.961 173.849 153.925 173.921 153.889 173.993C153.325 174.954 152.502 175.434 151.421 175.434C149.727 175.422 148.869 174.444 148.845 172.498V167.976H147.8V167.508H151.133V172.804C151.133 172.972 151.145 173.134 151.169 173.291C151.289 174.095 151.691 174.498 152.376 174.498C152.556 174.498 152.736 174.456 152.916 174.371C153.517 174.071 153.859 173.453 153.943 172.516L153.961 167.976H153.078V167.508H156.249V174.786H156.862Z" fill="#7F8082"/>
<path d="M136.991 174.786C137.063 174.786 137.129 174.792 137.189 174.804C137.345 174.828 137.423 174.978 137.423 175.254H133.333V174.786C133.429 174.786 133.52 174.78 133.604 174.768C134.12 174.708 134.378 174.402 134.378 173.849V167.976H133.333V167.508H136.54L136.63 168.823C137.159 167.778 137.999 167.249 139.152 167.237C139.345 167.237 139.537 167.261 139.729 167.309C140.461 167.526 140.972 168.06 141.26 168.913C141.837 167.808 142.707 167.249 143.872 167.237C144.293 167.237 144.683 167.351 145.043 167.58C145.824 168.072 146.214 168.907 146.214 170.084V174.786H146.809C146.881 174.786 146.953 174.792 147.025 174.804C147.181 174.828 147.259 174.978 147.259 175.254H143.152V174.786C143.344 174.786 143.494 174.768 143.602 174.732C143.83 174.636 143.944 174.341 143.944 173.849V169.868C143.944 169.567 143.908 169.291 143.836 169.039C143.644 168.426 143.29 168.12 142.773 168.12C142.653 168.12 142.533 168.144 142.413 168.192C141.849 168.432 141.524 169.051 141.44 170.048V170.174V174.786H141.747C141.819 174.786 141.891 174.792 141.963 174.804C142.119 174.828 142.197 174.978 142.197 175.254H138.378V174.786C138.57 174.786 138.72 174.768 138.828 174.732C139.056 174.636 139.17 174.341 139.17 173.849V169.868C139.17 169.543 139.128 169.249 139.044 168.985C138.852 168.432 138.534 168.156 138.089 168.156C137.933 168.156 137.777 168.198 137.621 168.282C137.069 168.571 136.756 169.189 136.684 170.138L136.666 174.786H136.991Z" fill="#7F8082"/>
<path d="M122.434 174.786C122.506 174.786 122.572 174.792 122.632 174.804C122.788 174.828 122.866 174.978 122.866 175.254H118.777V174.786C118.873 174.786 118.963 174.78 119.047 174.768C119.564 174.708 119.822 174.402 119.822 173.849V167.976H118.777V167.508H121.984L122.074 168.823C122.602 167.778 123.443 167.249 124.596 167.237C124.788 167.237 124.98 167.261 125.172 167.309C125.905 167.526 126.415 168.06 126.704 168.913C127.28 167.808 128.151 167.249 129.316 167.237C129.736 167.237 130.127 167.351 130.487 167.58C131.268 168.072 131.658 168.907 131.658 170.084V174.786H132.252C132.324 174.786 132.397 174.792 132.469 174.804C132.625 174.828 132.703 174.978 132.703 175.254H128.595V174.786C128.787 174.786 128.938 174.768 129.046 174.732C129.274 174.636 129.388 174.341 129.388 173.849V169.868C129.388 169.567 129.352 169.291 129.28 169.039C129.088 168.426 128.733 168.12 128.217 168.12C128.097 168.12 127.977 168.144 127.857 168.192C127.292 168.432 126.968 169.051 126.884 170.048V170.174V174.786H127.19C127.262 174.786 127.334 174.792 127.406 174.804C127.562 174.828 127.64 174.978 127.64 175.254H123.821V174.786C124.013 174.786 124.163 174.768 124.272 174.732C124.5 174.636 124.614 174.341 124.614 173.849V169.868C124.614 169.543 124.572 169.249 124.488 168.985C124.296 168.432 123.977 168.156 123.533 168.156C123.377 168.156 123.221 168.198 123.065 168.282C122.512 168.571 122.2 169.189 122.128 170.138L122.11 174.786H122.434Z" fill="#7F8082"/>
<path d="M112.039 171.345C112.039 172.474 112.111 173.297 112.255 173.813C112.472 174.582 112.952 174.966 113.697 174.966C114.117 174.966 114.459 174.84 114.723 174.588C115.18 174.131 115.408 173.026 115.408 171.273C115.408 170.18 115.336 169.381 115.192 168.877C114.976 168.096 114.483 167.706 113.715 167.706C113.258 167.706 112.904 167.844 112.652 168.12C112.243 168.589 112.039 169.663 112.039 171.345ZM113.805 167.237C114.838 167.237 115.72 167.52 116.453 168.084C117.402 168.841 117.876 169.892 117.876 171.237C117.876 172.246 117.576 173.134 116.975 173.903C116.171 174.924 115.06 175.434 113.643 175.434C112.61 175.434 111.721 175.122 110.976 174.498C110.039 173.705 109.571 172.63 109.571 171.273C109.571 170.312 109.847 169.471 110.4 168.751C111.192 167.742 112.327 167.237 113.805 167.237Z" fill="#7F8082"/>
<path d="M108.04 174.552C106.899 175.14 105.71 175.434 104.473 175.434C102.731 175.434 101.326 174.876 100.257 173.759C99.2601 172.702 98.7617 171.399 98.7617 169.85C98.7617 168.54 99.14 167.381 99.8967 166.373C100.966 164.967 102.509 164.265 104.527 164.265C105.788 164.265 106.941 164.547 107.986 165.112C107.974 164.919 107.98 164.763 108.004 164.643C108.064 164.451 108.25 164.355 108.562 164.355L108.616 167.904H107.986C107.793 167.207 107.571 166.637 107.319 166.192C106.779 165.268 105.944 164.805 104.815 164.805C102.677 164.817 101.602 166.469 101.59 169.76C101.59 170.768 101.662 171.615 101.806 172.3C102.191 174.029 103.145 174.894 104.671 174.894C105.055 174.894 105.403 174.852 105.716 174.768C106.845 174.456 107.631 173.465 108.076 171.795H108.67V175.344C108.538 175.344 108.43 175.332 108.346 175.308C108.13 175.26 108.028 175.008 108.04 174.552Z" fill="#7F8082"/>
<path d="M90.6908 174.93C91.4955 174.93 91.9579 174.642 92.078 174.065C92.09 173.981 92.096 173.903 92.096 173.831C92.096 173.218 91.7117 172.708 90.943 172.3C90.7749 172.204 90.5046 172.078 90.1323 171.921C89.2315 171.525 88.637 171.159 88.3488 170.822C88.0365 170.462 87.8804 170.036 87.8804 169.543C87.8804 168.522 88.4388 167.832 89.5558 167.472C90.0242 167.315 90.5467 167.237 91.1232 167.237C92.06 167.237 92.7926 167.406 93.321 167.742C93.321 167.381 93.4291 167.183 93.6453 167.147C93.6934 167.135 93.7414 167.129 93.7894 167.129V169.381H93.2129C93.1649 168.288 92.5704 167.736 91.4294 167.724C90.6608 167.724 90.1863 167.976 90.0062 168.48C89.9702 168.601 89.9521 168.721 89.9521 168.841C89.9521 169.357 90.3125 169.796 91.0331 170.156C91.1772 170.24 91.4174 170.354 91.7537 170.498C92.6905 170.919 93.315 171.303 93.6273 171.651C93.9876 172.059 94.1678 172.546 94.1678 173.11C94.1678 174.155 93.6273 174.858 92.5464 175.218C92.102 175.362 91.6036 175.434 91.0511 175.434C89.9942 175.434 89.1054 175.248 88.3848 174.876C88.3848 175.188 88.3067 175.368 88.1506 175.416C88.0785 175.428 87.9945 175.434 87.8984 175.434V172.696H88.5109C88.5349 174.173 89.2616 174.918 90.6908 174.93Z" fill="#7F8082"/>
<path d="M83.1423 174.93C83.947 174.93 84.4094 174.642 84.5295 174.065C84.5415 173.981 84.5475 173.903 84.5475 173.831C84.5475 173.218 84.1632 172.708 83.3945 172.3C83.2264 172.204 82.9562 172.078 82.5838 171.921C81.6831 171.525 81.0886 171.159 80.8003 170.822C80.488 170.462 80.3319 170.036 80.3319 169.543C80.3319 168.522 80.8904 167.832 82.0073 167.472C82.4757 167.315 82.9982 167.237 83.5747 167.237C84.5115 167.237 85.2441 167.406 85.7726 167.742C85.7726 167.381 85.8807 167.183 86.0969 167.147C86.1449 167.135 86.1929 167.129 86.241 167.129V169.381H85.6645C85.6164 168.288 85.0219 167.736 83.881 167.724C83.1123 167.724 82.6379 167.976 82.4577 168.48C82.4217 168.601 82.4037 168.721 82.4037 168.841C82.4037 169.357 82.764 169.796 83.4846 170.156C83.6287 170.24 83.8689 170.354 84.2052 170.498C85.142 170.919 85.7666 171.303 86.0788 171.651C86.4391 172.059 86.6193 172.546 86.6193 173.11C86.6193 174.155 86.0788 174.858 84.9979 175.218C84.5535 175.362 84.0551 175.434 83.5026 175.434C82.4457 175.434 81.557 175.248 80.8363 174.876C80.8363 175.188 80.7583 175.368 80.6021 175.416C80.5301 175.428 80.446 175.434 80.3499 175.434V172.696H80.9624C80.9865 174.173 81.7131 174.918 83.1423 174.93Z" fill="#7F8082"/>
<path d="M75.6119 167.706C74.6511 167.742 74.1286 168.757 74.0445 170.75L75.1975 170.804C75.6779 170.828 76.0382 170.798 76.2784 170.714C76.6147 170.582 76.7829 170.234 76.7829 169.669C76.7709 168.384 76.3805 167.73 75.6119 167.706ZM78.9808 173.399C78.9087 173.591 78.8126 173.777 78.6925 173.957C78.08 174.942 77.0711 175.434 75.6659 175.434C74.8732 175.434 74.1646 175.272 73.5401 174.948C72.231 174.263 71.5764 173.05 71.5764 171.309C71.5764 170.24 71.8647 169.345 72.4412 168.625C73.1978 167.7 74.2547 167.237 75.6119 167.237C76.3565 167.237 77.0231 167.363 77.6116 167.616C78.6565 168.084 79.1789 168.829 79.1789 169.85C79.1789 170.054 79.1429 170.24 79.0708 170.408C78.7586 171.081 77.6356 171.387 75.702 171.327L74.0445 171.273C74.0565 171.969 74.1166 172.57 74.2247 173.074C74.5009 174.299 75.1195 174.912 76.0803 174.912C76.3805 174.912 76.6748 174.858 76.963 174.75C77.6837 174.486 78.2121 173.987 78.5484 173.255L78.9808 173.399Z" fill="#7F8082"/>
<path d="M65.0729 174.786C65.1449 174.786 65.211 174.792 65.271 174.804C65.4272 174.828 65.5052 174.978 65.5052 175.254H61.2716V174.786C61.3557 174.786 61.4398 174.78 61.5238 174.768C62.0643 174.72 62.3345 174.414 62.3345 173.849V164.013H61.2716V163.544H64.6225V168.859C64.7066 168.691 64.8086 168.522 64.9287 168.354C65.5052 167.61 66.2799 167.237 67.2527 167.237C67.565 167.237 67.8532 167.285 68.1175 167.381C69.1864 167.742 69.7209 168.673 69.7209 170.174V174.786H70.3154C70.3874 174.786 70.4595 174.792 70.5315 174.804C70.6877 174.828 70.7657 174.978 70.7657 175.254H66.7303V174.786C66.9345 174.786 67.0966 174.756 67.2167 174.696C67.3608 174.612 67.4329 174.329 67.4329 173.849V169.868C67.4329 169.748 67.4269 169.639 67.4149 169.543C67.3308 168.643 66.9225 168.192 66.1898 168.192C65.9977 168.192 65.7995 168.246 65.5953 168.354C64.9468 168.703 64.6225 169.405 64.6225 170.462V174.786H65.0729Z" fill="#7F8082"/>
<path d="M59.9204 174.552C58.7794 175.14 57.5904 175.434 56.3534 175.434C54.6119 175.434 53.2067 174.876 52.1377 173.759C51.1409 172.702 50.6425 171.399 50.6425 169.85C50.6425 168.54 51.0208 167.381 51.7774 166.373C52.8463 164.967 54.3897 164.265 56.4074 164.265C57.6685 164.265 58.8215 164.547 59.8664 165.112C59.8544 164.919 59.8604 164.763 59.8844 164.643C59.9444 164.451 60.1306 164.355 60.4429 164.355L60.4969 167.904H59.8664C59.6742 167.207 59.452 166.637 59.1998 166.192C58.6593 165.268 57.8246 164.805 56.6956 164.805C54.5578 164.817 53.4829 166.469 53.4709 169.76C53.4709 170.768 53.5429 171.615 53.6871 172.3C54.0714 174.029 55.0262 174.894 56.5515 174.894C56.9359 174.894 57.2842 174.852 57.5964 174.768C58.7254 174.456 59.5121 173.465 59.9564 171.795H60.551V175.344C60.4188 175.344 60.3107 175.332 60.2267 175.308C60.0105 175.26 59.9084 175.008 59.9204 174.552Z" fill="#7F8082"/>
<path d="M42.5895 167.706C41.6287 167.742 41.1063 168.757 41.0222 170.75L42.1752 170.804C42.6556 170.828 43.0159 170.798 43.2561 170.714C43.5924 170.582 43.7605 170.234 43.7605 169.669C43.7485 168.384 43.3582 167.73 42.5895 167.706ZM45.9584 173.399C45.8864 173.591 45.7903 173.777 45.6702 173.957C45.0577 174.942 44.0488 175.434 42.6436 175.434C41.8509 175.434 41.1423 175.272 40.5178 174.948C39.2086 174.263 38.5541 173.05 38.5541 171.309C38.5541 170.24 38.8423 169.345 39.4188 168.625C40.1755 167.7 41.2324 167.237 42.5895 167.237C43.3342 167.237 44.0007 167.363 44.5893 167.616C45.6341 168.084 46.1566 168.829 46.1566 169.85C46.1566 170.054 46.1206 170.24 46.0485 170.408C45.7362 171.081 44.6133 171.387 42.6796 171.327L41.0222 171.273C41.0342 171.969 41.0943 172.57 41.2023 173.074C41.4786 174.299 42.0971 174.912 43.0579 174.912C43.3582 174.912 43.6524 174.858 43.9407 174.75C44.6613 174.486 45.1898 173.987 45.5261 173.255L45.9584 173.399Z" fill="#7F8082"/>
<path d="M31.7803 168.066V167.598H33.0233V165.886L35.3113 165.508V167.598H37.6893V168.066H35.3113V173.525C35.3113 173.681 35.3233 173.831 35.3473 173.975C35.4434 174.6 35.7136 174.912 36.158 174.912C36.2301 174.912 36.3022 174.906 36.3742 174.894C36.8426 174.798 37.1969 174.263 37.4371 173.291L37.9235 173.363C37.8275 173.855 37.6953 174.251 37.5272 174.552C37.1789 175.152 36.5424 175.452 35.6176 175.452C35.4734 175.452 35.3293 175.446 35.1852 175.434C33.744 175.266 33.0233 174.311 33.0233 172.57V168.066H31.7803Z" fill="#7F8082"/>
<path d="M30.7174 174.786C30.7895 174.786 30.8556 174.792 30.9156 174.804C31.0718 174.828 31.1498 174.978 31.1498 175.254H26.718V174.786C26.8742 174.786 27.0123 174.774 27.1324 174.75C27.5527 174.678 27.7629 174.377 27.7629 173.849V167.976H26.718V167.508H30.0509V174.786H30.7174ZM30.213 165.148C30.213 165.376 30.153 165.592 30.0329 165.796C29.7806 166.241 29.3903 166.463 28.8619 166.463C28.6457 166.463 28.4355 166.409 28.2313 166.301C27.7629 166.06 27.5287 165.676 27.5287 165.148C27.5287 164.919 27.5828 164.703 27.6909 164.499C27.9551 164.031 28.3454 163.796 28.8619 163.796C29.0901 163.796 29.3062 163.856 29.5104 163.977C29.9788 164.229 30.213 164.619 30.213 165.148Z" fill="#7F8082"/>
<path d="M25.5109 174.786C25.583 174.786 25.649 174.792 25.7091 174.804C25.8652 174.828 25.9433 174.978 25.9433 175.254H20.917V174.786C21.2533 174.786 21.5235 174.762 21.7277 174.714C22.124 174.606 22.3222 174.305 22.3222 173.813V164.013H20.917V163.544H24.6102V174.786H25.5109Z" fill="#7F8082"/>
<path d="M19.8361 167.904H19.3137L18.9173 166.661C18.8813 166.553 18.8393 166.445 18.7912 166.337C18.4189 165.4 17.7403 164.931 16.7555 164.931H14.7197V169.417H18.1787V169.958H14.7197V174.768H16.7555C16.9837 174.768 17.1999 174.744 17.404 174.696C18.0886 174.516 18.5871 173.963 18.8993 173.038L19.3137 171.795H19.8361L19.7641 175.254H10.7563V174.768H12.1976V164.931H10.7563V164.445H19.7641L19.8361 167.904Z" fill="#7F8082"/>
<path d="M96.2827 0C96.9142 0 97.4582 0.139602 97.8645 0.452211C98.2738 0.767126 98.5264 1.24446 98.5978 1.88382C98.6926 2.73405 98.3997 3.50813 98.1606 3.93585C99.8708 3.96043 100.86 4.24471 101.395 4.61934C101.677 4.8174 101.837 5.04362 101.903 5.27156C101.968 5.49879 101.936 5.71603 101.856 5.88934L101.855 5.88987L100.066 9.70652L105.274 8.51016V17.3976L105.106 17.3578C104.153 17.132 101.964 16.5693 100.864 16.131C100.327 15.9172 100.107 15.9916 100.022 16.0746C99.9767 16.1193 99.9487 16.1845 99.9385 16.2661C99.929 16.342 99.9367 16.4241 99.9534 16.4979C100.626 17.6369 101.103 18.4173 101.41 19.012C101.72 19.6113 101.868 20.0415 101.868 20.4812C101.868 20.8662 101.603 21.2169 101.314 21.4857C101.09 21.6933 100.834 21.8683 100.62 21.992C100.743 22.0936 100.883 22.2288 101.014 22.3899C101.213 22.6356 101.398 22.9508 101.458 23.3073C101.52 23.6798 101.376 24.0533 101.191 24.3564C101.082 24.5343 100.954 24.6948 100.834 24.8263L109.635 24.9572H109.643L109.65 24.9583C109.844 24.9824 110.15 25.0537 110.452 25.1898C110.752 25.3252 111.065 25.5321 111.248 25.837C111.429 26.1364 111.488 26.4907 111.493 26.8031C111.497 27.1165 111.448 27.4012 111.399 27.5716L111.397 27.5785L111.394 27.5854L104.91 43.456C105.331 43.62 105.955 44.0913 105.955 45.0315C105.955 45.5907 105.587 45.9554 105.168 46.1785C104.849 46.348 104.486 46.4449 104.184 46.4922C104.438 46.8121 104.773 47.3632 104.864 47.9964C104.962 48.6806 104.786 49.4738 104.646 49.916C105.16 49.9235 105.767 49.964 106.309 50.0874C106.909 50.224 107.477 50.4726 107.712 50.9388C107.892 51.2982 107.902 51.6914 107.847 52.0284C107.815 52.2232 107.76 52.4032 107.701 52.5537C108.104 52.4628 108.612 52.4261 109.078 52.5577C109.374 52.6414 109.656 52.7942 109.878 53.0473C110.1 53.3006 110.256 53.646 110.313 54.1022C110.429 55.0216 110.065 55.6333 109.559 56.0143C109.064 56.3864 108.441 56.5344 108.014 56.5595L105.256 56.9519C103.028 70.6565 103.336 80.8186 104.489 88.449C105.635 96.035 107.616 101.12 108.78 104.716C109.216 104.746 110.058 104.974 110.69 105.709C111.045 106.121 111.207 106.754 111.274 107.355C111.339 107.939 111.315 108.517 111.272 108.89C111.706 109.74 112.571 110.889 113.488 111.99C114.413 113.102 115.384 114.156 115.995 114.787C116.525 115.247 117.313 116.067 117.971 117.047C118.63 118.027 119.169 119.185 119.169 120.31C119.169 121.445 118.553 122.449 117.803 123.235C117.172 123.897 116.436 124.416 115.86 124.743C116.268 124.87 116.763 125.092 117.192 125.425C117.753 125.86 118.216 126.495 118.216 127.363C118.216 128.231 117.753 128.866 117.192 129.301C116.634 129.735 115.966 129.979 115.519 130.073L115.505 130.076H76.9241L76.9102 130.073C76.4631 129.979 75.7955 129.735 75.2367 129.301C74.6757 128.866 74.2136 128.231 74.2136 127.363C74.2136 126.495 74.6757 125.86 75.2367 125.425C75.6665 125.092 76.1607 124.87 76.5694 124.743C75.9931 124.416 75.2569 123.897 74.6258 123.235C73.8766 122.449 73.26 121.445 73.26 120.31C73.26 119.185 73.7994 118.027 74.4579 117.047C75.1156 116.067 75.904 115.247 76.4342 114.787C77.0454 114.156 78.0156 113.102 78.9414 111.99C79.8585 110.889 80.7232 109.74 81.1576 108.89C81.1143 108.517 81.0905 107.939 81.1552 107.355C81.2217 106.754 81.3843 106.121 81.7389 105.709C82.3712 104.974 83.2134 104.746 83.6493 104.716C84.8134 101.12 86.794 96.035 87.9403 88.449C89.0932 80.8186 89.4011 70.6565 87.1729 56.9519L84.4148 56.5595C83.9878 56.5344 83.3648 56.3864 82.8705 56.0143C82.3644 55.6333 82.0005 55.0216 82.1159 54.1022C82.1732 53.646 82.3287 53.3006 82.5512 53.0473C82.7735 52.7942 83.0552 52.6414 83.3513 52.5577C83.8167 52.4261 84.3255 52.4628 84.7277 52.5537C84.6687 52.4032 84.6142 52.2232 84.5824 52.0284C84.5274 51.6914 84.5371 51.2982 84.7176 50.9388C84.9517 50.4726 85.5198 50.224 86.1203 50.0874C86.6625 49.964 87.2694 49.9235 87.7827 49.916C87.6431 49.4738 87.4672 48.6806 87.5654 47.9964C87.6562 47.3632 87.9908 46.8121 88.2449 46.4922C87.9436 46.4449 87.58 46.348 87.2615 46.1785C86.842 45.9554 86.4742 45.5907 86.4742 45.0315C86.4742 44.0913 87.0979 43.62 87.5191 43.456L81.0352 27.5854L81.0322 27.5785L81.0304 27.5716C80.9815 27.4012 80.9317 27.1165 80.9364 26.8031C80.9412 26.4907 81.0003 26.1364 81.1807 25.837C81.3644 25.5321 81.6768 25.3252 81.9771 25.1898C82.279 25.0537 82.5851 24.9824 82.779 24.9583L82.7864 24.9572H82.7939L91.5953 24.8263C91.4747 24.6948 91.347 24.5343 91.2382 24.3564C91.053 24.0533 90.9093 23.6798 90.9716 23.3073C91.0313 22.9508 91.2161 22.6356 91.4154 22.3899C91.5461 22.2288 91.6864 22.0936 91.8089 21.992C91.5952 21.8683 91.339 21.6933 91.1153 21.4857C90.8256 21.2169 90.5611 20.8662 90.5611 20.4812C90.5611 20.0415 90.7094 19.6113 91.019 19.012C91.3261 18.4173 91.8026 17.6369 92.4757 16.4979C92.4925 16.4241 92.5001 16.342 92.4906 16.2661C92.4804 16.1845 92.4524 16.1193 92.4068 16.0746C92.3221 15.9916 92.102 15.9172 91.5652 16.131C90.4648 16.5693 88.2758 17.132 87.3232 17.3578L87.1553 17.3976V8.51016L92.3626 9.70652L90.5738 5.88987L90.5736 5.88934C90.4932 5.71603 90.461 5.49879 90.5262 5.27156C90.5916 5.04362 90.7516 4.8174 91.0344 4.61934C91.5693 4.24471 92.5583 3.96043 94.2685 3.93585C94.0295 3.50813 93.7365 2.73405 93.8314 1.88382C93.9027 1.24446 94.1553 0.767126 94.5646 0.452211C94.971 0.139602 95.5149 0 96.1464 0H96.2827Z" fill="#391B6B"/>
<rect x="44.7407" y="73.7328" width="16.6942" height="16.6942" fill="#391B6B"/>
<rect x="61.4349" y="57.7342" width="16.6942" height="15.9986" fill="#391B6B"/>
<rect x="61.4349" y="90.427" width="16.6942" height="16.6942" fill="#391B6B"/>
</svg>
