<svg width="115" height="131" viewBox="0 0 115 131" fill="none" xmlns="http://www.w3.org/2000/svg">
<path d="M98.0785 125.902L72.4131 127.293L68.8636 125.902L70.2288 120.755L75.6896 121.033C74.8158 119.92 75.3255 118.714 75.6896 118.251C77.3278 123.148 91.2981 125.392 98.0785 125.902Z" fill="#EDBB41"/>
<path d="M61.6925 65.9238C60.0647 66.5749 58.5726 67.642 58.03 68.0942L58.3013 70.8071C58.8891 70.6714 60.3089 70.156 61.2855 69.1793C62.2622 68.2027 62.3255 69.2245 62.235 69.8575L62.0994 71.8922C62.0542 72.6609 62.235 74.2253 63.3202 74.3339C64.4054 74.4424 64.8575 72.7513 64.948 71.8922C65.7076 68.6367 67.9774 65.11 69.0173 63.7535L72.1372 60.2267C74.3075 57.5138 77.3821 56.5643 78.6482 56.4286C78.8743 56.3834 79.7605 56.3201 81.4967 56.4286C83.233 56.5371 82.2202 57.1069 81.4967 57.3781C80.3031 57.7037 78.9195 58.7798 78.3769 59.2772C75.664 61.9901 75.5283 63.5726 75.7996 64.0248C75.8448 64.4769 76.7491 64.5674 80.0046 61.3119C84.074 57.2425 89.7711 57.7851 91.9415 57.6494C93.6777 57.5409 93.2075 56.9712 92.7553 56.6999C91.4893 55.7052 87.4923 53.77 81.6324 53.987C74.3075 54.2583 69.6956 58.192 67.3896 61.1762C65.0836 64.1604 63.7271 65.11 61.6925 65.9238Z" fill="#EDBB41"/>
<path d="M62.9132 79.7597L57.0804 84.9142L58.7082 88.7123L62.9132 79.7597Z" fill="#EDBB41"/>
<path d="M90.585 54.1226C90.6366 54.153 90.6902 54.1846 90.7455 54.2174C90.951 54.2597 91.3841 54.2607 92.2127 54.1226C93.5149 53.9056 95.8299 53.4896 96.8247 53.3088C97.6385 53.2636 99.0764 53.5258 98.3168 54.9365C97.5571 56.3472 98.2716 57.4234 98.7237 57.7851C99.8993 58.6442 102.033 60.4709 101.165 60.9049C100.08 61.4475 96.8247 58.7346 96.0108 57.7851C95.3816 57.051 92.3369 55.1598 90.7455 54.2174C90.628 54.1932 90.585 54.1555 90.585 54.1226Z" fill="#EDBB41"/>
<path d="M86.6513 62.2614C88.1705 62.6955 87.2843 63.2561 86.6513 63.4822C86.2443 63.6631 85.2677 64.2689 84.6166 65.2456C83.9655 66.2222 83.2601 67.642 82.9888 68.2298C82.8532 68.4107 82.392 68.7453 81.6324 68.6367C80.8728 68.5282 80.9541 67.5968 81.0898 67.1446C81.3159 66.376 81.6595 64.6216 81.2254 63.7535C80.7914 62.8854 80.9541 62.3066 81.0898 62.1257C82.2835 60.715 83.9383 61.1762 84.6166 61.5832C84.6618 61.6284 85.132 61.8273 86.6513 62.2614Z" fill="#EDBB41"/>
<path d="M61.8281 104.583C61.8733 100.378 63.9985 91.0454 72.1372 87.3558C72.9963 87.0846 74.3889 85.7552 73.0867 82.6082C71.459 78.6745 70.9164 72.4348 72.8154 70.6714C74.3347 69.2607 74.5336 70.8975 74.4432 71.8922C74.624 73.7461 76.1523 78.2947 80.8185 81.6587C81.4515 82.0204 82.5277 82.2827 81.768 80.4379C80.7281 78.8102 78.8652 75.2834 79.7334 74.1982C80.1855 73.9269 81.334 73.9541 82.3106 76.2329C83.5314 79.0815 87.1939 83.8291 95.3326 80.4379C93.0719 78.4484 88.7674 72.8418 89.6355 66.3308C90.7207 66.6473 92.9452 67.9043 93.1623 70.4001C93.3793 72.896 94.6996 72.254 95.3326 71.6209C95.3326 70.3097 96.1736 67.7686 99.5376 68.0942C100.352 68.0942 101.599 67.633 100.08 65.7882C98.1812 63.4822 98.3168 63.7535 97.6386 63.7535C96.9604 63.7535 96.1465 62.1257 97.2317 61.9901C98.3168 61.8545 101.165 63.0753 101.708 63.7535C102.251 64.4317 102.522 66.8733 104.014 66.3308C105.506 65.7882 105.642 66.4664 105.913 65.3812C106.184 64.2961 107.134 64.8387 107.676 66.0595C108.219 67.2803 106.998 68.7724 106.591 68.6367C106.266 68.5282 106.003 67.7776 105.913 67.4159C105.687 66.8733 104.936 66.2494 103.743 68.0942C103.697 68.8176 103.363 70.156 102.386 69.7219C101.934 70.1741 101.41 71.1869 102.929 71.6209C104.828 72.1635 104.014 73.9269 102.657 74.1982C101.572 74.4152 101.12 74.8312 101.03 75.0121C100.713 75.0121 100.134 75.3648 100.352 76.7755C100.482 77.6236 100.521 77.9912 100.521 78.1201L104.421 76.7755C105.37 76.4138 107.486 75.7446 108.355 75.9616C109.44 76.2329 110.254 74.3339 109.575 72.9774C109.033 71.8922 112.062 72.5252 113.645 72.9774C114.368 73.2487 115.245 74.3881 112.967 76.7755C112.876 77.092 112.234 77.8064 110.389 78.1319C108.545 78.4575 109.892 79.1719 110.796 79.4884C111.61 80.0762 112.505 81.3332 109.575 81.6587C108.897 81.5683 107.785 81.9029 108.762 83.9647C108.219 84.7786 106.862 85.7552 105.777 83.1508C104.692 80.5464 102.793 82.0657 101.979 83.1508C98.9498 85.3212 92.267 91.3981 89.7711 98.3431C89.4546 99.79 87.5194 102.874 82.3106 103.633C80.8637 103.859 77.4545 106.183 75.3927 113.671C75.2118 114.621 74.6331 115.896 73.7649 113.4C72.6798 110.28 72.8154 104.854 74.4432 99.9709C74.4432 99.4735 74.199 98.8315 73.2224 100.242C72.0016 102.006 68.0678 111.501 67.6609 113.671C67.3353 115.407 63.6367 108.336 61.8281 104.583Z" fill="#EDBB41"/>
<path d="M81.2254 114.214C81.0083 118.554 88.6407 119.097 92.484 118.826C104.828 116.927 108.626 104.854 108.626 103.905C108.626 102.955 108.083 102.819 107.405 102.684C106.862 102.575 106.455 104.447 106.32 105.397C105.099 108.517 102.25 111.229 99.4019 111.772C97.123 112.206 97.8194 111.229 98.4524 110.687C104.421 106.672 105.551 98.6144 105.37 95.0876L108.626 96.1728C107.088 93.9573 103.987 89.1464 103.878 87.6271C103.77 86.1079 103.29 85.7281 103.064 85.7281C99.1577 87.4644 96.915 89.5262 96.282 90.34C93.8856 93.3242 89.4998 99.7267 91.1275 101.463C92.7552 103.199 92.4387 105.08 92.077 105.804C91.4892 107.431 89.3912 110.795 85.7017 111.229C82.0121 111.664 81.1801 113.4 81.2254 114.214Z" fill="#EDBB41"/>
<path d="M51.542 0C52.1734 0 52.7174 0.139602 53.1237 0.452211C53.5331 0.767126 53.7857 1.24446 53.857 1.88382C53.9519 2.73405 53.6589 3.50813 53.4199 3.93585C55.1301 3.96043 56.1191 4.24471 56.654 4.61934C56.9368 4.8174 57.0968 5.04362 57.1622 5.27156C57.2274 5.49879 57.1952 5.71603 57.1148 5.88934L57.1146 5.88987L55.3258 9.70652L60.5331 8.51016V17.3976L60.3652 17.3578C59.4126 17.132 57.2236 16.5693 56.1232 16.131C55.5864 15.9172 55.3663 15.9916 55.2816 16.0746C55.236 16.1193 55.208 16.1845 55.1978 16.2661C55.1883 16.342 55.1959 16.4241 55.2127 16.4979C55.8858 17.6369 56.3623 18.4173 56.6694 19.0119C56.979 19.6113 57.1273 20.0415 57.1273 20.4812C57.1273 20.8662 56.8628 21.2169 56.5731 21.4857C56.3494 21.6933 56.0932 21.8683 55.8795 21.992C56.002 22.0936 56.1423 22.2288 56.273 22.3899C56.4723 22.6356 56.6571 22.9508 56.7168 23.3073C56.7791 23.6798 56.6354 24.0533 56.4502 24.3564C56.3414 24.5343 56.2137 24.6948 56.0931 24.8263L64.8945 24.9572H64.902L64.9094 24.9583C65.1033 24.9824 65.4094 25.0537 65.7113 25.1898C66.0116 25.3252 66.324 25.5321 66.5077 25.837C66.6881 26.1364 66.7472 26.4907 66.7519 26.8031C66.7567 27.1165 66.7069 27.4012 66.658 27.5716L66.6562 27.5785L66.6532 27.5854L60.1693 43.456C60.5905 43.62 61.2142 44.0913 61.2142 45.0315C61.2142 45.5907 60.8464 45.9554 60.4269 46.1785C60.1084 46.348 59.7448 46.4449 59.4435 46.4922C59.6976 46.8121 60.0322 47.3632 60.123 47.9964C60.2212 48.6806 60.0453 49.4738 59.9057 49.916C60.419 49.9235 61.0259 49.964 61.5681 50.0874C62.1686 50.224 62.7367 50.4726 62.9708 50.9388C63.1513 51.2982 63.161 51.6914 63.106 52.0284C63.0742 52.2232 63.0197 52.4032 62.9607 52.5537C63.3629 52.4628 63.8717 52.4261 64.3371 52.5577C64.6332 52.6414 64.9149 52.7942 65.1372 53.0473C65.3597 53.3006 65.5152 53.646 65.5725 54.1022C65.6879 55.0216 65.324 55.6333 64.8179 56.0143C64.3236 56.3864 63.7006 56.5344 63.2736 56.5595L60.5155 56.9519C58.2873 70.6565 58.5952 80.8186 59.7481 88.449C60.8944 96.035 62.875 101.12 64.0391 104.716C64.475 104.746 65.3172 104.974 65.9495 105.709C66.3041 106.121 66.4667 106.754 66.5332 107.355C66.5979 107.939 66.5741 108.517 66.5308 108.89C66.9652 109.74 67.8299 110.889 68.747 111.99C69.6728 113.102 70.643 114.156 71.2542 114.787C71.7844 115.247 72.5728 116.067 73.2305 117.047C73.889 118.027 74.4284 119.185 74.4284 120.31C74.4284 121.445 73.8118 122.449 73.0626 123.235C72.4315 123.897 71.6953 124.416 71.119 124.743C71.5277 124.87 72.0219 125.092 72.4517 125.425C73.0127 125.86 73.4748 126.495 73.4748 127.363C73.4748 128.231 73.0127 128.866 72.4517 129.301C71.8929 129.735 71.2253 129.979 70.7781 130.073L70.7643 130.076H32.1834L32.1695 130.073C31.7223 129.979 31.0548 129.735 30.4959 129.301C29.935 128.866 29.4729 128.231 29.4729 127.363C29.4729 126.495 29.935 125.86 30.4959 125.425C30.9258 125.092 31.42 124.87 31.8287 124.743C31.2524 124.416 30.5162 123.897 29.885 123.235C29.1359 122.449 28.5193 121.445 28.5193 120.31C28.5193 119.185 29.0587 118.027 29.7171 117.047C30.3749 116.067 31.1633 115.247 31.6935 114.787C32.3047 114.156 33.2749 113.102 34.2007 111.99C35.1178 110.889 35.9825 109.74 36.4168 108.89C36.3735 108.517 36.3498 107.939 36.4144 107.355C36.481 106.754 36.6436 106.121 36.9982 105.709C37.6305 104.974 38.4727 104.746 38.9086 104.716C40.0726 101.12 42.0533 96.035 43.1995 88.449C44.3525 80.8186 44.6604 70.6565 42.4322 56.9519L39.6741 56.5595C39.2471 56.5344 38.6241 56.3864 38.1298 56.0143C37.6237 55.6333 37.2598 55.0216 37.3752 54.1022C37.4325 53.646 37.588 53.3006 37.8105 53.0473C38.0328 52.7942 38.3145 52.6414 38.6106 52.5577C39.076 52.4261 39.5848 52.4628 39.987 52.5537C39.928 52.4032 39.8735 52.2232 39.8417 52.0284C39.7867 51.6914 39.7964 51.2982 39.9769 50.9388C40.211 50.4726 40.7791 50.224 41.3796 50.0874C41.9217 49.964 42.5287 49.9235 43.042 49.916C42.9024 49.4738 42.7265 48.6806 42.8246 47.9964C42.9155 47.3632 43.25 46.8121 43.5042 46.4922C43.2029 46.4449 42.8393 46.348 42.5208 46.1785C42.1013 45.9554 41.7335 45.5907 41.7335 45.0315C41.7335 44.0913 42.3572 43.62 42.7783 43.456L36.2944 27.5854L36.2915 27.5785L36.2896 27.5716C36.2407 27.4012 36.191 27.1165 36.1957 26.8031C36.2005 26.4907 36.2596 26.1364 36.44 25.837C36.6237 25.5321 36.936 25.3252 37.2363 25.1898C37.5382 25.0537 37.8444 24.9824 38.0383 24.9583L38.0457 24.9572H38.0532L46.8546 24.8263C46.734 24.6948 46.6063 24.5343 46.4975 24.3564C46.3123 24.0533 46.1686 23.6798 46.2309 23.3073C46.2906 22.9508 46.4754 22.6356 46.6747 22.3899C46.8054 22.2288 46.9457 22.0936 47.0682 21.992C46.8545 21.8683 46.5983 21.6933 46.3746 21.4857C46.0849 21.2169 45.8203 20.8662 45.8203 20.4812C45.8203 20.0415 45.9687 19.6113 46.2783 19.0119C46.5854 18.4173 47.0619 17.6369 47.735 16.4979C47.7517 16.4241 47.7594 16.342 47.7499 16.2661C47.7396 16.1845 47.7117 16.1193 47.6661 16.0746C47.5814 15.9916 47.3613 15.9172 46.8245 16.131C45.724 16.5693 43.5351 17.132 42.5825 17.3578L42.4146 17.3976V8.51016L47.6219 9.70652L45.8331 5.88987L45.8328 5.88934C45.7525 5.71603 45.7203 5.49879 45.7855 5.27156C45.8509 5.04362 46.0109 4.8174 46.2937 4.61934C46.8286 4.24471 47.8176 3.96043 49.5278 3.93585C49.2887 3.50813 48.9957 2.73405 49.0906 1.88382C49.162 1.24446 49.4146 0.767126 49.8239 0.452211C50.2302 0.139602 50.7742 0 51.4057 0H51.542Z" fill="#391B6B"/>
<rect y="73.7328" width="16.6942" height="16.6942" fill="#391B6B"/>
<rect x="16.6942" y="57.7342" width="16.6942" height="15.9986" fill="#391B6B"/>
<rect x="16.6942" y="90.427" width="16.6942" height="16.6942" fill="#391B6B"/>
</svg>
